<svg xmlns="http://www.w3.org/2000/svg" width="50" height="50" viewBox="200 300 600 400">
<g>
<path d="M 310.78 686.51 C303.78,684.74 294.93,680.34 289.24,675.81 C283.61,671.34 276.47,661.70 274.27,655.61 C272.77,651.45 271.87,650.44 268.27,648.90 C262.15,646.28 255.60,639.31 253.60,633.30 C252.11,628.82 251.96,622.58 252.22,575.39 L 252.50 522.50 L 255.16 517.46 C258.73,510.70 265.43,504.73 272.37,502.14 C277.15,500.34 280.24,500.00 291.50,500.00 L 304.93 500.00 L 305.22 445.25 L 305.50 390.50 L 308.29 384.82 C311.57,378.13 316.30,373.69 323.95,370.10 L 329.50 367.50 L 376.00 367.50 C421.92,367.50 422.58,367.53 429.15,369.80 C432.81,371.06 437.87,373.46 440.38,375.13 C450.84,382.06 452.35,384.60 485.17,450.50 C516.71,513.82 517.22,515.03 520.61,532.75 C520.92,534.36 521.74,535.00 523.52,535.00 L 526.00 535.00 L 526.00 424.63 C526.00,314.97 526.01,314.25 528.05,311.67 C531.45,307.35 539.82,306.12 544.05,309.33 C544.90,309.97 546.36,311.61 547.30,312.97 C548.88,315.28 549.00,326.24 549.00,473.72 L 549.00 632.00 L 558.50 632.00 L 568.00 632.00 L 568.00 535.95 C568.00,430.00 567.65,435.86 574.27,432.29 C576.77,430.94 580.60,430.46 591.25,430.18 L 605.00 429.81 L 605.02 387.15 C605.03,344.80 605.05,344.47 607.28,340.50 C611.63,332.77 609.61,333.00 670.93,333.00 C723.33,333.00 725.52,333.08 729.50,335.00 C732.13,336.27 734.42,338.41 735.82,340.89 C737.97,344.71 738.00,345.43 738.00,387.39 L 738.00 430.00 L 754.18 430.00 C773.66,430.00 777.24,431.15 781.76,438.85 L 784.50 443.50 L 784.77 535.50 C785.02,621.86 784.93,627.71 783.27,630.93 C780.10,637.06 777.08,638.46 766.14,638.84 L 756.41 639.17 L 754.43 643.34 C750.51,651.55 758.39,651.00 644.99,651.00 L 544.47 651.00 L 541.18 658.06 C534.35,672.72 518.82,684.32 502.21,687.17 C480.94,690.82 457.66,679.21 447.52,659.90 L 443.87 652.95 L 408.96 653.03 C369.87,653.11 372.79,652.54 368.56,660.86 C358.73,680.23 332.27,691.98 310.78,686.51 ZM 335.62 664.53 C342.77,661.32 348.40,655.88 351.96,648.76 C355.82,641.03 356.17,631.21 352.90,622.46 C350.03,614.78 342.15,606.96 334.33,604.00 C326.42,601.02 315.73,601.53 308.46,605.25 C302.35,608.37 295.57,615.49 292.70,621.82 C289.40,629.08 289.68,641.76 293.29,648.71 C297.00,655.87 300.95,660.11 306.90,663.35 C316.27,668.45 325.99,668.84 335.62,664.53 ZM 507.45 664.48 C521.53,657.82 529.02,642.53 525.55,627.55 C523.19,617.39 517.54,609.97 508.50,605.17 C504.15,602.86 502.33,602.52 494.50,602.53 C487.16,602.54 484.65,602.96 480.86,604.83 C473.45,608.49 468.37,613.49 464.86,620.63 C462.04,626.36 461.64,628.16 461.68,634.96 C461.72,641.05 462.27,643.91 464.21,648.12 C466.87,653.89 473.47,661.14 478.44,663.75 C487.34,668.43 498.52,668.71 507.45,664.48 ZM 441.41 628.96 C445.23,600.15 470.21,579.04 497.74,581.36 C506.12,582.07 514.51,584.78 521.25,588.97 L 526.00 591.92 L 526.00 573.39 L 526.00 554.86 L 504.25 555.18 C482.83,555.50 482.42,555.54 477.37,558.20 C474.55,559.69 470.28,563.24 467.87,566.09 C465.47,568.94 461.65,573.23 459.38,575.63 L 455.26 580.00 L 433.88 580.00 C415.49,580.00 412.03,579.75 409.10,578.25 C406.28,576.79 403.53,572.70 392.80,554.00 C376.85,526.20 375.97,524.93 370.74,521.93 L 366.50 519.50 L 324.00 519.22 C284.22,518.97 281.28,519.07 278.08,520.80 C270.90,524.69 271.00,523.97 271.04,575.98 L 271.07 622.50 L 272.99 617.16 C279.70,598.51 295.68,584.98 314.74,581.80 C328.16,579.57 343.07,583.35 354.29,591.85 C365.36,600.23 372.08,611.22 374.84,625.44 L 376.50 633.99 L 408.62 634.00 L 440.74 634.00 L 441.41 628.96 ZM 677.00 583.00 L 677.00 546.00 L 632.00 546.00 L 587.00 546.00 L 587.00 583.00 L 587.00 620.00 L 632.00 620.00 L 677.00 620.00 L 677.00 583.00 ZM 766.00 583.00 L 766.00 546.00 L 731.00 546.00 L 696.00 546.00 L 696.00 583.00 L 696.00 620.00 L 731.00 620.00 L 766.00 620.00 L 766.00 583.00 ZM 453.17 552.65 L 459.84 545.33 L 446.75 526.20 L 433.65 507.07 L 429.38 511.00 C427.04,513.16 423.97,515.22 422.56,515.57 C415.35,517.38 408.57,510.82 410.35,503.75 C410.66,502.51 418.05,494.41 426.78,485.75 C442.27,470.37 442.74,470.00 446.90,470.00 C450.27,470.00 451.76,470.61 454.08,472.92 C458.81,477.66 458.01,483.00 451.52,490.00 L 448.27 493.50 L 462.88 514.68 L 477.50 535.86 L 489.00 535.29 C495.33,534.98 500.71,534.54 500.97,534.31 C501.23,534.08 500.68,530.88 499.75,527.20 C497.62,518.79 439.62,401.91 434.90,396.54 C433.13,394.52 429.39,391.66 426.59,390.19 L 421.50 387.50 L 376.93 387.21 L 332.37 386.92 L 329.56 389.13 C324.00,393.50 324.00,393.53 324.00,448.97 L 324.00 500.00 L 346.47 500.00 C371.53,500.00 374.39,500.52 383.79,506.74 C390.11,510.93 394.79,517.32 405.98,537.00 C410.51,544.97 415.31,553.41 416.65,555.75 L 419.08 560.00 L 432.79 559.98 L 446.50 559.96 L 453.17 552.65 ZM 677.87 488.48 L 678.24 450.00 L 666.12 450.00 L 654.00 450.00 L 654.00 461.44 C654.00,472.10 653.83,473.08 651.59,475.69 L 649.17 478.50 L 632.67 478.50 C616.57,478.50 616.10,478.44 613.58,476.08 C611.09,473.73 611.00,473.25 611.00,461.83 L 611.00 450.00 L 599.00 450.00 L 587.00 450.00 L 587.00 488.75 L 587.00 527.50 L 632.25 527.23 L 677.50 526.96 L 677.87 488.48 ZM 766.00 488.50 L 766.00 450.00 L 760.08 450.00 L 754.16 450.00 L 753.83 462.48 C753.37,479.84 753.90,479.40 733.36,479.82 C710.49,480.29 710.00,479.91 710.00,461.45 L 710.00 450.00 L 703.00 450.00 L 696.00 450.00 L 696.00 488.50 L 696.00 527.00 L 731.00 527.00 L 766.00 527.00 L 766.00 488.50 ZM 738.15 459.75 C738.84,451.35 738.59,451.00 731.93,451.00 L 726.00 451.00 L 726.00 457.50 L 726.00 464.00 L 731.90 464.00 L 737.80 464.00 L 738.15 459.75 ZM 638.80 456.75 L 638.50 450.50 L 632.25 450.20 L 626.00 449.90 L 626.00 456.45 L 626.00 463.00 L 632.55 463.00 L 639.10 463.00 L 638.80 456.75 ZM 719.00 391.00 L 719.00 352.00 L 706.50 352.00 L 694.00 352.00 L 694.00 364.48 C694.00,376.86 693.98,377.00 691.08,380.23 L 688.17 383.50 L 674.48 383.83 C652.66,384.35 651.00,382.98 651.00,364.37 L 651.00 352.00 L 638.00 352.00 L 625.00 352.00 L 625.00 391.00 L 625.00 430.00 L 672.00 430.00 L 719.00 430.00 L 719.00 391.00 ZM 678.50 359.75 L 678.50 353.50 L 672.25 353.20 L 666.00 352.90 L 666.00 359.45 L 666.00 366.00 L 672.25 366.00 L 678.50 366.00 L 678.50 359.75 ZM 316.83 644.29 C315.36,643.38 313.67,641.57 313.08,640.27 C311.51,636.84 311.76,630.79 313.56,628.22 C315.30,625.74 320.01,623.00 322.55,623.00 C325.61,623.00 330.58,626.02 332.29,628.92 C338.22,638.95 326.69,650.41 316.83,644.29 ZM 486.40 642.60 C483.78,639.98 483.00,638.37 483.00,635.55 C483.00,630.44 485.30,626.56 489.50,624.57 C496.98,621.02 505.00,626.59 505.00,635.32 C505.00,638.40 504.30,639.90 501.60,642.60 C498.81,645.39 497.44,646.00 494.00,646.00 C490.56,646.00 489.19,645.39 486.40,642.60 Z" fill="rgba(0,0,0,1)"/>
</g>
</svg>